<svg width="143" height="52" viewBox="0 0 143 52" fill="none" xmlns="http://www.w3.org/2000/svg">
<path d="M0.731 40H29.972V32.476H9.965V0.0999973H0.731V40ZM48.8737 40.456C58.6207 40.456 65.6887 33.901 65.6887 24.667C65.6887 15.433 58.6207 8.878 48.8737 8.878C39.1267 8.878 32.0017 15.433 32.0017 24.667C32.0017 33.901 39.1267 40.456 48.8737 40.456ZM48.8737 33.16C44.4277 33.16 41.0077 29.968 41.0077 24.667C41.0077 19.366 44.4277 16.174 48.8737 16.174C53.3197 16.174 56.6827 19.366 56.6827 24.667C56.6827 29.968 53.3197 33.16 48.8737 33.16ZM94.8313 9.334V13.267C92.4943 10.303 88.9603 8.878 84.6853 8.878C76.1923 8.878 69.3523 14.749 69.3523 23.698C69.3523 32.647 76.1923 38.518 84.6853 38.518C88.6753 38.518 92.0383 37.264 94.3753 34.699V36.01C94.3753 41.539 91.6393 44.389 85.3693 44.389C81.4363 44.389 77.1613 43.021 74.5393 40.912L71.0053 47.296C74.5963 50.089 80.2393 51.514 86.0533 51.514C97.1113 51.514 103.267 46.27 103.267 34.87V9.334H94.8313ZM86.4523 31.222C81.7783 31.222 78.3583 28.201 78.3583 23.698C78.3583 19.195 81.7783 16.174 86.4523 16.174C91.1263 16.174 94.4893 19.195 94.4893 23.698C94.4893 28.201 91.1263 31.222 86.4523 31.222ZM126.135 40.456C135.882 40.456 142.95 33.901 142.95 24.667C142.95 15.433 135.882 8.878 126.135 8.878C116.388 8.878 109.263 15.433 109.263 24.667C109.263 33.901 116.388 40.456 126.135 40.456ZM126.135 33.16C121.689 33.16 118.269 29.968 118.269 24.667C118.269 19.366 121.689 16.174 126.135 16.174C130.581 16.174 133.944 19.366 133.944 24.667C133.944 29.968 130.581 33.16 126.135 33.16Z" fill="#596C72"/>
</svg>
