<svg width="8" height="5" viewBox="0 0 8 5" fill="none" xmlns="http://www.w3.org/2000/svg">
<path fill-rule="evenodd" clip-rule="evenodd" d="M7.3064 0.460693C7.40838 0.562674 7.46567 0.700991 7.46567 0.845215C7.46567 0.989438 7.40838 1.12775 7.3064 1.22974L4.23022 4.30591C4.12824 4.40789 3.98993 4.46518 3.8457 4.46518C3.70148 4.46518 3.56316 4.40789 3.46118 4.30591L0.38501 1.22974C0.283028 1.12775 0.225736 0.989438 0.225736 0.845215C0.225736 0.700991 0.283029 0.562674 0.38501 0.460693C0.486991 0.358712 0.625308 0.301419 0.769531 0.301419C0.913755 0.301419 1.05207 0.358712 1.15405 0.460693L3.8457 3.15234L6.53735 0.460693C6.63933 0.358712 6.77765 0.301419 6.92187 0.301419C7.0661 0.301419 7.20441 0.358712 7.3064 0.460693Z" fill="#FFC01F"/>
</svg>
