<svg width="25" height="25" viewBox="0 0 25 25" fill="none" xmlns="http://www.w3.org/2000/svg">
<path fill-rule="evenodd" clip-rule="evenodd" d="M7.13276 0.0728171C8.42692 0.0132395 8.83955 0 12.1362 0C15.4328 0 15.8454 0.0143427 17.1385 0.0728171C18.4315 0.131291 19.3142 0.337606 20.0865 0.636598C20.8952 0.942209 21.6289 1.41993 22.2357 2.03777C22.8535 2.64348 23.3302 3.37606 23.6347 4.18588C23.9348 4.95818 24.14 5.84081 24.1995 7.13166C24.2591 8.42803 24.2724 8.84066 24.2724 12.1362C24.2724 15.4328 24.258 15.8454 24.1995 17.1396C24.1411 18.4304 23.9348 19.3131 23.6347 20.0854C23.3301 20.8953 22.8527 21.6291 22.2357 22.2357C21.6289 22.8535 20.8952 23.3302 20.0865 23.6347C19.3142 23.9348 18.4315 24.14 17.1407 24.1995C15.8454 24.2591 15.4328 24.2724 12.1362 24.2724C8.83955 24.2724 8.42692 24.258 7.13276 24.1995C5.84192 24.1411 4.95928 23.9348 4.18698 23.6347C3.37708 23.3301 2.64328 22.8527 2.03667 22.2357C1.41925 21.6296 0.941453 20.8962 0.636598 20.0865C0.337606 19.3142 0.132395 18.4315 0.0728171 17.1407C0.0132395 15.8443 0 15.4317 0 12.1362C0 8.83955 0.0143427 8.42692 0.0728171 7.13387C0.131291 5.84081 0.337606 4.95818 0.636598 4.18588C0.941903 3.37615 1.42006 2.64272 2.03777 2.03667C2.64353 1.41938 3.37659 0.941595 4.18588 0.636598C4.95818 0.337606 5.84081 0.132395 7.13166 0.0728171H7.13276ZM17.0403 2.25733C15.7605 2.19886 15.3765 2.18672 12.1362 2.18672C8.89582 2.18672 8.51188 2.19886 7.23206 2.25733C6.04823 2.31139 5.40612 2.50888 4.97804 2.67548C4.41205 2.89613 4.00715 3.15761 3.58238 3.58238C3.17973 3.9741 2.86985 4.45098 2.67548 4.97804C2.50888 5.40612 2.31139 6.04823 2.25733 7.23206C2.19886 8.51188 2.18672 8.89582 2.18672 12.1362C2.18672 15.3765 2.19886 15.7605 2.25733 17.0403C2.31139 18.2241 2.50888 18.8662 2.67548 19.2943C2.86965 19.8206 3.17968 20.2983 3.58238 20.69C3.97405 21.0927 4.45177 21.4027 4.97804 21.5969C5.40612 21.7635 6.04823 21.961 7.23206 22.015C8.51188 22.0735 8.89472 22.0856 12.1362 22.0856C15.3776 22.0856 15.7605 22.0735 17.0403 22.015C18.2241 21.961 18.8662 21.7635 19.2943 21.5969C19.8603 21.3762 20.2652 21.1147 20.69 20.69C21.0927 20.2983 21.4027 19.8206 21.5969 19.2943C21.7635 18.8662 21.961 18.2241 22.015 17.0403C22.0735 15.7605 22.0856 15.3765 22.0856 12.1362C22.0856 8.89582 22.0735 8.51188 22.015 7.23206C21.961 6.04823 21.7635 5.40612 21.5969 4.97804C21.3762 4.41205 21.1147 4.00715 20.69 3.58238C20.2982 3.17976 19.8214 2.86989 19.2943 2.67548C18.8662 2.50888 18.2241 2.31139 17.0403 2.25733ZM10.5861 15.8774C11.4518 16.2378 12.4157 16.2864 13.3133 16.015C14.2109 15.7436 14.9864 15.169 15.5074 14.3894C16.0284 13.6097 16.2625 12.6733 16.1699 11.7402C16.0772 10.8071 15.6634 9.93509 14.9992 9.27314C14.5758 8.85001 14.0639 8.52601 13.5002 8.32448C12.9366 8.12295 12.3352 8.04889 11.7395 8.10765C11.1438 8.1664 10.5686 8.35651 10.0552 8.66427C9.54175 8.97204 9.10296 9.38981 8.77038 9.88751C8.4378 10.3852 8.21971 10.9505 8.13181 11.5426C8.04391 12.1347 8.08838 12.7389 8.26202 13.3118C8.43567 13.8846 8.73417 14.4118 9.13603 14.8555C9.53789 15.2991 10.0331 15.6482 10.5861 15.8774ZM7.72523 7.72523C8.30448 7.14598 8.99216 6.68649 9.74899 6.373C10.5058 6.05951 11.317 5.89815 12.1362 5.89815C12.9554 5.89815 13.7665 6.05951 14.5234 6.373C15.2802 6.68649 15.9679 7.14598 16.5471 7.72523C17.1264 8.30448 17.5859 8.99216 17.8994 9.74899C18.2129 10.5058 18.3742 11.317 18.3742 12.1362C18.3742 12.9554 18.2129 13.7665 17.8994 14.5234C17.5859 15.2802 17.1264 15.9679 16.5471 16.5471C15.3773 17.717 13.7906 18.3742 12.1362 18.3742C10.4818 18.3742 8.89509 17.717 7.72523 16.5471C6.55537 15.3773 5.89816 13.7906 5.89816 12.1362C5.89816 10.4818 6.55537 8.89509 7.72523 7.72523ZM19.7577 6.82715C19.9012 6.69175 20.0162 6.52891 20.0956 6.3483C20.1751 6.16768 20.2176 5.97295 20.2204 5.77564C20.2233 5.57833 20.1866 5.38245 20.1124 5.19959C20.0382 5.01674 19.9281 4.85062 19.7886 4.71109C19.649 4.57155 19.4829 4.46143 19.3 4.38725C19.1172 4.31306 18.9213 4.27632 18.724 4.2792C18.5267 4.28207 18.332 4.32451 18.1513 4.404C17.9707 4.48348 17.8079 4.59839 17.6725 4.74194C17.4091 5.0211 17.265 5.39191 17.2706 5.77564C17.2762 6.15937 17.4311 6.52582 17.7024 6.79719C17.9738 7.06856 18.3403 7.22349 18.724 7.22908C19.1077 7.23467 19.4785 7.0905 19.7577 6.82715Z" fill="#353535"/>
</svg>
